<svg width="840" height="1024" viewBox="0 0 840 1024" fill="none" xmlns="http://www.w3.org/2000/svg">
<mask id="mask0_5_9" style="mask-type:alpha" maskUnits="userSpaceOnUse" x="0" y="0" width="840" height="1024">
<rect width="840" height="1024" fill="#F7E050"/>
</mask>
<g mask="url(#mask0_5_9)">
<rect width="840" height="1024" fill="#F7E050"/>
<g opacity="0.5">
<path d="M0 0V33.5115L33.264 0H0ZM44.1045 0L0 44.352V63.459L63.5085 0H44.1045ZM74.349 0L0 74.547V93.7035L93.555 0H74.349ZM104.593 0L0 104.544V123.948L123.75 0H104.593ZM123.75 0L247.5 123.7V104.544L142.906 0H123.75ZM247.5 123.7L371.25 247.352L495 123.75L371.25 0L247.5 123.7ZM0 123.948V143.104L104.593 247.648H123.75L0 123.898V123.948ZM123.75 247.648H142.906L247.5 143.055V123.898L123.75 247.648ZM123.75 247.648L0 371.25L123.75 495L247.5 371.299L123.75 247.648ZM247.5 371.25L371.25 247.599H352.093L247.5 352.143V371.299V371.25ZM247.5 371.25V390.406L352.093 495H371.25L247.5 371.299V371.25ZM371.25 495H390.406L495 390.456V371.299L371.25 495ZM495 371.299V352.143L390.406 247.648H371.25L495 371.25V371.299ZM153.945 0L247.5 93.7035V74.547L173.151 0H153.994H153.945ZM183.991 0L247.5 63.459V44.352L203.148 0H183.991ZM214.186 0L247.5 33.5115V0H214.236H214.186ZM123.75 10.8405L10.593 123.948H123.75V10.8405ZM123.75 123.948V236.808L236.66 123.948H123.75ZM371.25 19.404L475.843 123.948L371.25 228.492L266.656 123.948L371.25 19.404ZM371.25 30.2445L277.497 123.948L371.002 217.404L464.755 123.948L371.25 30.195V30.2445ZM371.25 49.6485L445.846 123.898L371.25 198.297L296.901 123.948L371.25 49.6485ZM371.25 60.4395L307.741 123.948L371.25 187.407L434.758 123.948L371.25 60.39V60.4395ZM371.25 79.3485L415.602 123.898L371.25 168.052L326.898 123.75L371.25 79.3485ZM371.25 90.4365L337.986 123.948L371.25 157.212L404.761 123.948H404.514L371.25 90.4365ZM0 153.895V173.052L74.349 247.648H93.5055L0 153.895ZM247.5 153.895L153.945 247.648H173.151L247.5 173.052V153.945V153.895ZM0 184.14V203.296L44.1045 247.648H63.5085L0 184.14ZM247.5 184.14L183.991 247.648H203.148L247.5 203.296V184.14ZM0 214.335V247.648H33.264L0 214.335ZM247.5 214.335L214.236 247.648H247.5V214.335ZM247.5 247.648V280.863L280.764 247.648H247.5ZM291.852 247.648L247.5 291.703V311.107L311.008 247.648H291.852ZM321.849 247.648L247.5 321.898V341.104L341.253 247.648H321.849ZM401.494 247.648L495 341.055V321.898L420.651 247.648H401.494ZM431.739 247.648L495 311.107V291.703L450.895 247.648H431.739ZM461.736 247.648L495 280.863V247.648H461.736ZM371.25 258.39L258.34 371.25H371.25V258.39ZM371.25 371.25V484.11L484.159 371.25H371.25ZM123.75 266.805L228.343 371.349L123.75 475.843L19.1565 371.299L123.75 266.805ZM123.75 277.695L30.195 371.002L123.997 464.458L217.552 371.002L123.75 277.596V277.695ZM123.75 297L198.099 371.299L123.75 445.648L49.401 371.25L123.75 297ZM123.75 307.84L60.2415 371.25L123.75 434.808L187.258 371.25L123.75 307.89V307.84ZM123.75 326.997L168.102 371.25L123.75 415.651L79.398 371.25L123.75 326.997ZM123.75 338.035L90.486 371.299L123.75 404.564L157.014 371.299L123.75 338.085V338.035ZM247.5 401.544V420.7L321.849 495H341.005L247.5 401.544ZM495 401.544L401.445 495H420.651L495 420.7V401.544ZM247.5 431.541V450.648L291.852 495H311.008L247.5 431.541ZM495 431.541L431.739 495H450.895L495 450.648V431.541ZM247.5 461.736V495H280.764L247.5 461.736ZM495 461.736L461.736 495H495V461.736Z" fill="#F9A939"/>
<path d="M0 495V528.511L33.264 495H0ZM44.1045 495L0 539.352V558.459L63.5085 495H44.1045ZM74.349 495L0 569.547V588.703L93.555 495H74.349ZM104.593 495L0 599.544V618.948L123.75 495H104.593ZM123.75 495L247.5 618.7V599.544L142.906 495H123.75ZM247.5 618.7L371.25 742.352L495 618.75L371.25 495L247.5 618.7ZM0 618.948V638.104L104.593 742.648H123.75L0 618.898V618.948ZM123.75 742.648H142.906L247.5 638.055V618.898L123.75 742.648ZM123.75 742.648L0 866.25L123.75 990L247.5 866.299L123.75 742.648ZM247.5 866.25L371.25 742.599H352.093L247.5 847.143V866.299V866.25ZM247.5 866.25V885.406L352.093 990H371.25L247.5 866.299V866.25ZM371.25 990H390.406L495 885.456V866.299L371.25 990ZM495 866.299V847.143L390.406 742.648H371.25L495 866.25V866.299ZM153.945 495L247.5 588.703V569.547L173.151 495H153.994H153.945ZM183.991 495L247.5 558.459V539.352L203.148 495H183.991ZM214.186 495L247.5 528.511V495H214.236H214.186ZM123.75 505.84L10.593 618.948H123.75V505.84ZM123.75 618.948V731.808L236.66 618.948H123.75ZM371.25 514.404L475.843 618.948L371.25 723.492L266.656 618.948L371.25 514.404ZM371.25 525.244L277.497 618.948L371.002 712.404L464.755 618.948L371.25 525.195V525.244ZM371.25 544.648L445.846 618.898L371.25 693.297L296.901 618.948L371.25 544.648ZM371.25 555.439L307.741 618.948L371.25 682.407L434.758 618.948L371.25 555.39V555.439ZM371.25 574.349L415.602 618.898L371.25 663.052L326.898 618.75L371.25 574.349ZM371.25 585.437L337.986 618.948L371.25 652.212L404.761 618.948H404.514L371.25 585.437ZM0 648.895V668.052L74.349 742.648H93.5055L0 648.895ZM247.5 648.895L153.945 742.648H173.151L247.5 668.052V648.945V648.895ZM0 679.14V698.296L44.1045 742.648H63.5085L0 679.14ZM247.5 679.14L183.991 742.648H203.148L247.5 698.296V679.14ZM0 709.335V742.648H33.264L0 709.335ZM247.5 709.335L214.236 742.648H247.5V709.335ZM247.5 742.648V775.863L280.764 742.648H247.5ZM291.852 742.648L247.5 786.703V806.107L311.008 742.648H291.852ZM321.849 742.648L247.5 816.898V836.104L341.253 742.648H321.849ZM401.494 742.648L495 836.055V816.898L420.651 742.648H401.494ZM431.739 742.648L495 806.107V786.703L450.895 742.648H431.739ZM461.736 742.648L495 775.863V742.648H461.736ZM371.25 753.39L258.34 866.25H371.25V753.39ZM371.25 866.25V979.11L484.159 866.25H371.25ZM123.75 761.805L228.343 866.349L123.75 970.843L19.1565 866.299L123.75 761.805ZM123.75 772.695L30.195 866.002L123.997 959.458L217.552 866.002L123.75 772.596V772.695ZM123.75 792L198.099 866.299L123.75 940.648L49.401 866.25L123.75 792ZM123.75 802.84L60.2415 866.25L123.75 929.808L187.258 866.25L123.75 802.89V802.84ZM123.75 821.997L168.102 866.25L123.75 910.651L79.398 866.25L123.75 821.997ZM123.75 833.035L90.486 866.299L123.75 899.564L157.014 866.299L123.75 833.085V833.035ZM247.5 896.544V915.7L321.849 990H341.005L247.5 896.544ZM495 896.544L401.445 990H420.651L495 915.7V896.544ZM247.5 926.541V945.648L291.852 990H311.008L247.5 926.541ZM495 926.541L431.739 990H450.895L495 945.648V926.541ZM247.5 956.736V990H280.764L247.5 956.736ZM495 956.736L461.736 990H495V956.736Z" fill="#F9A939"/>
<path d="M0 990V1023.51L33.264 990H0ZM44.1045 990L0 1034.35V1053.46L63.5085 990H44.1045ZM74.349 990L0 1064.55V1083.7L93.555 990H74.349ZM104.593 990L0 1094.54V1113.95L123.75 990H104.593ZM123.75 990L247.5 1113.7V1094.54L142.906 990H123.75ZM247.5 1113.7L371.25 1237.35L495 1113.75L371.25 990L247.5 1113.7ZM0 1113.95V1133.1L104.593 1237.65H123.75L0 1113.9V1113.95ZM123.75 1237.65H142.906L247.5 1133.05V1113.9L123.75 1237.65ZM123.75 1237.65L0 1361.25L123.75 1485L247.5 1361.3L123.75 1237.65ZM247.5 1361.25L371.25 1237.6H352.093L247.5 1342.14V1361.3V1361.25ZM247.5 1361.25V1380.41L352.093 1485H371.25L247.5 1361.3V1361.25ZM371.25 1485H390.406L495 1380.46V1361.3L371.25 1485ZM495 1361.3V1342.14L390.406 1237.65H371.25L495 1361.25V1361.3ZM153.945 990L247.5 1083.7V1064.55L173.151 990H153.994H153.945ZM183.991 990L247.5 1053.46V1034.35L203.148 990H183.991ZM214.186 990L247.5 1023.51V990H214.236H214.186ZM123.75 1000.84L10.593 1113.95H123.75V1000.84ZM123.75 1113.95V1226.81L236.66 1113.95H123.75ZM371.25 1009.4L475.843 1113.95L371.25 1218.49L266.656 1113.95L371.25 1009.4ZM371.25 1020.24L277.497 1113.95L371.002 1207.4L464.755 1113.95L371.25 1020.19V1020.24ZM371.25 1039.65L445.846 1113.9L371.25 1188.3L296.901 1113.95L371.25 1039.65ZM371.25 1050.44L307.741 1113.95L371.25 1177.41L434.758 1113.95L371.25 1050.39V1050.44ZM371.25 1069.35L415.602 1113.9L371.25 1158.05L326.898 1113.75L371.25 1069.35ZM371.25 1080.44L337.986 1113.95L371.25 1147.21L404.761 1113.95H404.514L371.25 1080.44ZM0 1143.9V1163.05L74.349 1237.65H93.5055L0 1143.9ZM247.5 1143.9L153.945 1237.65H173.151L247.5 1163.05V1143.94V1143.9ZM0 1174.14V1193.3L44.1045 1237.65H63.5085L0 1174.14ZM247.5 1174.14L183.991 1237.65H203.148L247.5 1193.3V1174.14ZM0 1204.33V1237.65H33.264L0 1204.33ZM247.5 1204.33L214.236 1237.65H247.5V1204.33ZM247.5 1237.65V1270.86L280.764 1237.65H247.5ZM291.852 1237.65L247.5 1281.7V1301.11L311.008 1237.65H291.852ZM321.849 1237.65L247.5 1311.9V1331.1L341.253 1237.65H321.849ZM401.494 1237.65L495 1331.05V1311.9L420.651 1237.65H401.494ZM431.739 1237.65L495 1301.11V1281.7L450.895 1237.65H431.739ZM461.736 1237.65L495 1270.86V1237.65H461.736ZM371.25 1248.39L258.34 1361.25H371.25V1248.39ZM371.25 1361.25V1474.11L484.159 1361.25H371.25ZM123.75 1256.8L228.343 1361.35L123.75 1465.84L19.1565 1361.3L123.75 1256.8ZM123.75 1267.69L30.195 1361L123.997 1454.46L217.552 1361L123.75 1267.6V1267.69ZM123.75 1287L198.099 1361.3L123.75 1435.65L49.401 1361.25L123.75 1287ZM123.75 1297.84L60.2415 1361.25L123.75 1424.81L187.258 1361.25L123.75 1297.89V1297.84ZM123.75 1317L168.102 1361.25L123.75 1405.65L79.398 1361.25L123.75 1317ZM123.75 1328.04L90.486 1361.3L123.75 1394.56L157.014 1361.3L123.75 1328.08V1328.04ZM247.5 1391.54V1410.7L321.849 1485H341.005L247.5 1391.54ZM495 1391.54L401.445 1485H420.651L495 1410.7V1391.54ZM247.5 1421.54V1440.65L291.852 1485H311.008L247.5 1421.54ZM495 1421.54L431.739 1485H450.895L495 1440.65V1421.54ZM247.5 1451.74V1485H280.764L247.5 1451.74ZM495 1451.74L461.736 1485H495V1451.74Z" fill="#F9A939"/>
<path d="M495 0V33.5115L528.264 0H495ZM539.104 0L495 44.352V63.459L558.508 0H539.104ZM569.349 0L495 74.547V93.7035L588.555 0H569.349ZM599.593 0L495 104.544V123.948L618.75 0H599.593ZM618.75 0L742.5 123.7V104.544L637.906 0H618.75ZM742.5 123.7L866.25 247.352L990 123.75L866.25 0L742.5 123.7ZM495 123.948V143.104L599.593 247.648H618.75L495 123.898V123.948ZM618.75 247.648H637.906L742.5 143.055V123.898L618.75 247.648ZM618.75 247.648L495 371.25L618.75 495L742.5 371.299L618.75 247.648ZM742.5 371.25L866.25 247.599H847.093L742.5 352.143V371.299V371.25ZM742.5 371.25V390.406L847.093 495H866.25L742.5 371.299V371.25ZM866.25 495H885.406L990 390.456V371.299L866.25 495ZM990 371.299V352.143L885.406 247.648H866.25L990 371.25V371.299ZM648.945 0L742.5 93.7035V74.547L668.151 0H648.994H648.945ZM678.991 0L742.5 63.459V44.352L698.148 0H678.991ZM709.186 0L742.5 33.5115V0H709.236H709.186ZM618.75 10.8405L505.593 123.948H618.75V10.8405ZM618.75 123.948V236.808L731.66 123.948H618.75ZM866.25 19.404L970.843 123.948L866.25 228.492L761.656 123.948L866.25 19.404ZM866.25 30.2445L772.497 123.948L866.002 217.404L959.755 123.948L866.25 30.195V30.2445ZM866.25 49.6485L940.846 123.898L866.25 198.297L791.901 123.948L866.25 49.6485ZM866.25 60.4395L802.741 123.948L866.25 187.407L929.758 123.948L866.25 60.39V60.4395ZM866.25 79.3485L910.602 123.898L866.25 168.052L821.898 123.75L866.25 79.3485ZM866.25 90.4365L832.986 123.948L866.25 157.212L899.761 123.948H899.514L866.25 90.4365ZM495 153.895V173.052L569.349 247.648H588.505L495 153.895ZM742.5 153.895L648.945 247.648H668.151L742.5 173.052V153.945V153.895ZM495 184.14V203.296L539.104 247.648H558.508L495 184.14ZM742.5 184.14L678.991 247.648H698.148L742.5 203.296V184.14ZM495 214.335V247.648H528.264L495 214.335ZM742.5 214.335L709.236 247.648H742.5V214.335ZM742.5 247.648V280.863L775.764 247.648H742.5ZM786.852 247.648L742.5 291.703V311.107L806.008 247.648H786.852ZM816.849 247.648L742.5 321.898V341.104L836.253 247.648H816.849ZM896.494 247.648L990 341.055V321.898L915.651 247.648H896.494ZM926.739 247.648L990 311.107V291.703L945.895 247.648H926.739ZM956.736 247.648L990 280.863V247.648H956.736ZM866.25 258.39L753.34 371.25H866.25V258.39ZM866.25 371.25V484.11L979.159 371.25H866.25ZM618.75 266.805L723.343 371.349L618.75 475.843L514.156 371.299L618.75 266.805ZM618.75 277.695L525.195 371.002L618.997 464.458L712.552 371.002L618.75 277.596V277.695ZM618.75 297L693.099 371.299L618.75 445.648L544.401 371.25L618.75 297ZM618.75 307.84L555.241 371.25L618.75 434.808L682.258 371.25L618.75 307.89V307.84ZM618.75 326.997L663.102 371.25L618.75 415.651L574.398 371.25L618.75 326.997ZM618.75 338.035L585.486 371.299L618.75 404.564L652.014 371.299L618.75 338.085V338.035ZM742.5 401.544V420.7L816.849 495H836.005L742.5 401.544ZM990 401.544L896.445 495H915.651L990 420.7V401.544ZM742.5 431.541V450.648L786.852 495H806.008L742.5 431.541ZM990 431.541L926.739 495H945.895L990 450.648V431.541ZM742.5 461.736V495H775.764L742.5 461.736ZM990 461.736L956.736 495H990V461.736Z" fill="#F9A939"/>
<path d="M495 495V528.511L528.264 495H495ZM539.104 495L495 539.352V558.459L558.508 495H539.104ZM569.349 495L495 569.547V588.703L588.555 495H569.349ZM599.593 495L495 599.544V618.948L618.75 495H599.593ZM618.75 495L742.5 618.7V599.544L637.906 495H618.75ZM742.5 618.7L866.25 742.352L990 618.75L866.25 495L742.5 618.7ZM495 618.948V638.104L599.593 742.648H618.75L495 618.898V618.948ZM618.75 742.648H637.906L742.5 638.055V618.898L618.75 742.648ZM618.75 742.648L495 866.25L618.75 990L742.5 866.299L618.75 742.648ZM742.5 866.25L866.25 742.599H847.093L742.5 847.143V866.299V866.25ZM742.5 866.25V885.406L847.093 990H866.25L742.5 866.299V866.25ZM866.25 990H885.406L990 885.456V866.299L866.25 990ZM990 866.299V847.143L885.406 742.648H866.25L990 866.25V866.299ZM648.945 495L742.5 588.703V569.547L668.151 495H648.994H648.945ZM678.991 495L742.5 558.459V539.352L698.148 495H678.991ZM709.186 495L742.5 528.511V495H709.236H709.186ZM618.75 505.84L505.593 618.948H618.75V505.84ZM618.75 618.948V731.808L731.66 618.948H618.75ZM866.25 514.404L970.843 618.948L866.25 723.492L761.656 618.948L866.25 514.404ZM866.25 525.244L772.497 618.948L866.002 712.404L959.755 618.948L866.25 525.195V525.244ZM866.25 544.648L940.846 618.898L866.25 693.297L791.901 618.948L866.25 544.648ZM866.25 555.439L802.741 618.948L866.25 682.407L929.758 618.948L866.25 555.39V555.439ZM866.25 574.349L910.602 618.898L866.25 663.052L821.898 618.75L866.25 574.349ZM866.25 585.437L832.986 618.948L866.25 652.212L899.761 618.948H899.514L866.25 585.437ZM495 648.895V668.052L569.349 742.648H588.505L495 648.895ZM742.5 648.895L648.945 742.648H668.151L742.5 668.052V648.945V648.895ZM495 679.14V698.296L539.104 742.648H558.508L495 679.14ZM742.5 679.14L678.991 742.648H698.148L742.5 698.296V679.14ZM495 709.335V742.648H528.264L495 709.335ZM742.5 709.335L709.236 742.648H742.5V709.335ZM742.5 742.648V775.863L775.764 742.648H742.5ZM786.852 742.648L742.5 786.703V806.107L806.008 742.648H786.852ZM816.849 742.648L742.5 816.898V836.104L836.253 742.648H816.849ZM896.494 742.648L990 836.055V816.898L915.651 742.648H896.494ZM926.739 742.648L990 806.107V786.703L945.895 742.648H926.739ZM956.736 742.648L990 775.863V742.648H956.736ZM866.25 753.39L753.34 866.25H866.25V753.39ZM866.25 866.25V979.11L979.159 866.25H866.25ZM618.75 761.805L723.343 866.349L618.75 970.843L514.156 866.299L618.75 761.805ZM618.75 772.695L525.195 866.002L618.997 959.458L712.552 866.002L618.75 772.596V772.695ZM618.75 792L693.099 866.299L618.75 940.648L544.401 866.25L618.75 792ZM618.75 802.84L555.241 866.25L618.75 929.808L682.258 866.25L618.75 802.89V802.84ZM618.75 821.997L663.102 866.25L618.75 910.651L574.398 866.25L618.75 821.997ZM618.75 833.035L585.486 866.299L618.75 899.564L652.014 866.299L618.75 833.085V833.035ZM742.5 896.544V915.7L816.849 990H836.005L742.5 896.544ZM990 896.544L896.445 990H915.651L990 915.7V896.544ZM742.5 926.541V945.648L786.852 990H806.008L742.5 926.541ZM990 926.541L926.739 990H945.895L990 945.648V926.541ZM742.5 956.736V990H775.764L742.5 956.736ZM990 956.736L956.736 990H990V956.736Z" fill="#F9A939"/>
<path d="M495 990V1023.51L528.264 990H495ZM539.104 990L495 1034.35V1053.46L558.508 990H539.104ZM569.349 990L495 1064.55V1083.7L588.555 990H569.349ZM599.593 990L495 1094.54V1113.95L618.75 990H599.593ZM618.75 990L742.5 1113.7V1094.54L637.906 990H618.75ZM742.5 1113.7L866.25 1237.35L990 1113.75L866.25 990L742.5 1113.7ZM495 1113.95V1133.1L599.593 1237.65H618.75L495 1113.9V1113.95ZM618.75 1237.65H637.906L742.5 1133.05V1113.9L618.75 1237.65ZM618.75 1237.65L495 1361.25L618.75 1485L742.5 1361.3L618.75 1237.65ZM742.5 1361.25L866.25 1237.6H847.093L742.5 1342.14V1361.3V1361.25ZM742.5 1361.25V1380.41L847.093 1485H866.25L742.5 1361.3V1361.25ZM866.25 1485H885.406L990 1380.46V1361.3L866.25 1485ZM990 1361.3V1342.14L885.406 1237.65H866.25L990 1361.25V1361.3ZM648.945 990L742.5 1083.7V1064.55L668.151 990H648.994H648.945ZM678.991 990L742.5 1053.46V1034.35L698.148 990H678.991ZM709.186 990L742.5 1023.51V990H709.236H709.186ZM618.75 1000.84L505.593 1113.95H618.75V1000.84ZM618.75 1113.95V1226.81L731.66 1113.95H618.75ZM866.25 1009.4L970.843 1113.95L866.25 1218.49L761.656 1113.95L866.25 1009.4ZM866.25 1020.24L772.497 1113.95L866.002 1207.4L959.755 1113.95L866.25 1020.19V1020.24ZM866.25 1039.65L940.846 1113.9L866.25 1188.3L791.901 1113.95L866.25 1039.65ZM866.25 1050.44L802.741 1113.95L866.25 1177.41L929.758 1113.95L866.25 1050.39V1050.44ZM866.25 1069.35L910.602 1113.9L866.25 1158.05L821.898 1113.75L866.25 1069.35ZM866.25 1080.44L832.986 1113.95L866.25 1147.21L899.761 1113.95H899.514L866.25 1080.44ZM495 1143.9V1163.05L569.349 1237.65H588.505L495 1143.9ZM742.5 1143.9L648.945 1237.65H668.151L742.5 1163.05V1143.94V1143.9ZM495 1174.14V1193.3L539.104 1237.65H558.508L495 1174.14ZM742.5 1174.14L678.991 1237.65H698.148L742.5 1193.3V1174.14ZM495 1204.33V1237.65H528.264L495 1204.33ZM742.5 1204.33L709.236 1237.65H742.5V1204.33ZM742.5 1237.65V1270.86L775.764 1237.65H742.5ZM786.852 1237.65L742.5 1281.7V1301.11L806.008 1237.65H786.852ZM816.849 1237.65L742.5 1311.9V1331.1L836.253 1237.65H816.849ZM896.494 1237.65L990 1331.05V1311.9L915.651 1237.65H896.494ZM926.739 1237.65L990 1301.11V1281.7L945.895 1237.65H926.739ZM956.736 1237.65L990 1270.86V1237.65H956.736ZM866.25 1248.39L753.34 1361.25H866.25V1248.39ZM866.25 1361.25V1474.11L979.159 1361.25H866.25ZM618.75 1256.8L723.343 1361.35L618.75 1465.84L514.156 1361.3L618.75 1256.8ZM618.75 1267.69L525.195 1361L618.997 1454.46L712.552 1361L618.75 1267.6V1267.69ZM618.75 1287L693.099 1361.3L618.75 1435.65L544.401 1361.25L618.75 1287ZM618.75 1297.84L555.241 1361.25L618.75 1424.81L682.258 1361.25L618.75 1297.89V1297.84ZM618.75 1317L663.102 1361.25L618.75 1405.65L574.398 1361.25L618.75 1317ZM618.75 1328.04L585.486 1361.3L618.75 1394.56L652.014 1361.3L618.75 1328.08V1328.04ZM742.5 1391.54V1410.7L816.849 1485H836.005L742.5 1391.54ZM990 1391.54L896.445 1485H915.651L990 1410.7V1391.54ZM742.5 1421.54V1440.65L786.852 1485H806.008L742.5 1421.54ZM990 1421.54L926.739 1485H945.895L990 1440.65V1421.54ZM742.5 1451.74V1485H775.764L742.5 1451.74ZM990 1451.74L956.736 1485H990V1451.74Z" fill="#F9A939"/>
</g>
<rect width="840" height="1024" fill="url(#paint0_diamond_5_9)" style="mix-blend-mode:screen"/>
<rect width="840" height="1024" fill="url(#paint1_radial_5_9)" fill-opacity="0.5" style="mix-blend-mode:multiply"/>
</g>
<defs>
<radialGradient id="paint0_diamond_5_9" cx="0" cy="0" r="1" gradientUnits="userSpaceOnUse" gradientTransform="translate(420 512) rotate(91.6809) scale(664.786 545.332)">
<stop offset="0.409375" stop-color="#F7E050"/>
<stop offset="1" stop-color="#F7E050" stop-opacity="0"/>
</radialGradient>
<radialGradient id="paint1_radial_5_9" cx="0" cy="0" r="1" gradientUnits="userSpaceOnUse" gradientTransform="translate(420 512) rotate(91.6809) scale(664.786 545.332)">
<stop offset="0.39375" stop-color="#F7E050" stop-opacity="0"/>
<stop offset="1" stop-color="#F9A93A"/>
</radialGradient>
</defs>
</svg>
